M48
METRIC,0000.00
T01C1.1
%
T01
X+001255Y+001857
X+001509Y+001857
X+001509Y+002111
X+001255Y+002111
X+001763Y+002111
X+001763Y+001857
X+002017Y+001857
X+002017Y+002111
X+002271Y+002111
X+002525Y+002111
X+002525Y+001857
X+002271Y+001857
X+002779Y+001857
X+003033Y+001857
X+003033Y+002111
X+002779Y+002111
X+003287Y+002111
X+003287Y+001857
X+003541Y+001857
X+003541Y+002111
X+003795Y+002111
X+003795Y+001857
X+004049Y+001857
X+004303Y+001857
X+004303Y+002111
X+004049Y+002111
X+004557Y+002111
X+004557Y+001857
X+004811Y+001857
X+004811Y+002111
X+005065Y+002111
X+005065Y+001857
X+005319Y+001857
X+005319Y+002111
X+005573Y+002111
X+005573Y+001857
X+005827Y+001857
X+006081Y+001857
X+006081Y+002111
X+005827Y+002111
X+006335Y+002111
X+006335Y+001857
X+006589Y+001857
X+006589Y+002111
X+006843Y+002111
X+006843Y+001857
X+007097Y+001857
X+007351Y+001857
X+007351Y+002111
X+007097Y+002111
X+007605Y+002111
X+007605Y+001857
X+007859Y+001857
X+007859Y+002111
X+008113Y+002111
X+008113Y+001857
X+008367Y+001857
X+008367Y+002111
X+008621Y+002111
X+008621Y+001857
X+008875Y+001857
X+008875Y+002111
T00
M30
