G04 DipTrace 3.1.0.1*
G04 Top.gbr*
%MOMM*%
G04 #@! TF.FileFunction,Copper,L1,Top*
G04 #@! TF.Part,Single*
%AMOUTLINE0*
4,1,4,
0.508,2.159,
-0.508,2.159,
-0.508,-2.159,
0.508,-2.159,
0.508,2.159,
0*%
G04 #@! TA.AperFunction,Conductor*
%ADD14C,0.33*%
G04 #@! TA.AperFunction,CopperBalancing*
%ADD15C,0.635*%
G04 #@! TA.AperFunction,ComponentPad*
%ADD16R,1.7X1.7*%
%ADD17C,1.7*%
%ADD27OUTLINE0*%
%FSLAX35Y35*%
G04*
G71*
G90*
G75*
G01*
G04 Top*
%LPD*%
X1508853Y1317533D2*
D14*
Y1603340D1*
X1254827Y1857367D1*
X1762853Y1317533D2*
Y1603340D1*
X1508827Y1857367D1*
X2016853Y1317533D2*
Y1603340D1*
X1762827Y1857367D1*
X2270853Y1317533D2*
Y1603340D1*
X2016827Y1857367D1*
X2524853Y1317533D2*
Y1603340D1*
X2270827Y1857367D1*
X2778853Y1317533D2*
Y1603340D1*
X2524827Y1857367D1*
X3032853Y1317533D2*
Y1603340D1*
X2778827Y1857367D1*
X3286853Y1317533D2*
Y1603340D1*
X3032827Y1857367D1*
X3540853Y1317533D2*
Y1603340D1*
X3286827Y1857367D1*
X3794853Y1317533D2*
Y1603340D1*
X3540827Y1857367D1*
X4048853Y1317533D2*
Y1603340D1*
X3794827Y1857367D1*
X4302853Y1317533D2*
Y1603340D1*
X4048827Y1857367D1*
X4556853Y1317533D2*
Y1603340D1*
X4302827Y1857367D1*
X4810853Y1317533D2*
Y1603340D1*
X4556827Y1857367D1*
X5064853Y1317533D2*
Y1603340D1*
X4810827Y1857367D1*
X5318853Y1317533D2*
Y1603340D1*
X5064827Y1857367D1*
X5572853Y1317533D2*
Y1603340D1*
X5318827Y1857367D1*
X5826853Y1317533D2*
Y1603340D1*
X5572827Y1857367D1*
X6080853Y1317533D2*
Y1603340D1*
X5826827Y1857367D1*
X6334853Y1317533D2*
Y1603340D1*
X6080827Y1857367D1*
X6588853Y1317533D2*
Y1603340D1*
X6334827Y1857367D1*
X6842853Y1317533D2*
Y1603340D1*
X6588827Y1857367D1*
X7096853Y1317533D2*
Y1603340D1*
X6842827Y1857367D1*
X7350853Y1317533D2*
Y1603340D1*
X7096827Y1857367D1*
X7604853Y1317533D2*
Y1603340D1*
X7350827Y1857367D1*
X7858853Y1317533D2*
Y1603340D1*
X7604827Y1857367D1*
X8112853Y1317533D2*
Y1603340D1*
X7858827Y1857367D1*
X8366853Y1317533D2*
Y1603340D1*
X8112827Y1857367D1*
X8620853Y1317533D2*
Y1603340D1*
X8366827Y1857367D1*
X8874853Y1317533D2*
Y1603340D1*
X8620827Y1857367D1*
X9128853Y1317533D2*
Y1603340D1*
X8874827Y1857367D1*
X9033468Y2109217D2*
D15*
X9294662D1*
X9018794Y2046050D2*
X9294662D1*
X1601437Y1982883D2*
X1670222D1*
X1855461D2*
X1924245D1*
X2109393D2*
X2178268D1*
X2363416D2*
X2432201D1*
X2617440D2*
X2686224D1*
X2871463D2*
X2940248D1*
X3125396D2*
X3194271D1*
X3379419D2*
X3448203D1*
X3633442D2*
X3702227D1*
X3887375D2*
X3956250D1*
X4141398D2*
X4210274D1*
X4395422D2*
X4464206D1*
X4649445D2*
X4718229D1*
X4903377D2*
X4972253D1*
X5157401D2*
X5226276D1*
X5411424D2*
X5480209D1*
X5665448D2*
X5734232D1*
X5919380D2*
X5988255D1*
X6173403D2*
X6242279D1*
X6427427D2*
X6496211D1*
X6681450D2*
X6750235D1*
X6935382D2*
X7004258D1*
X7189406D2*
X7258190D1*
X7443429D2*
X7512214D1*
X7697453D2*
X7766237D1*
X7951385D2*
X8020261D1*
X8205409D2*
X8274193D1*
X8459432D2*
X8528216D1*
X8713455D2*
X8782240D1*
X8967388D2*
X9294662D1*
X9020161Y1919717D2*
X9294662D1*
X9033468Y1856550D2*
X9294662D1*
X9063638Y1793383D2*
X9294662D1*
X9126802Y1730217D2*
X9294662D1*
X1104146Y1667050D2*
X1320313D1*
X9189966D2*
X9294662D1*
X1104146Y1603883D2*
X1383477D1*
X1598976D2*
X1637500D1*
X1853000D2*
X1891432D1*
X2107023D2*
X2145456D1*
X2360955D2*
X2399479D1*
X2614979D2*
X2653503D1*
X2869002D2*
X2907435D1*
X3123026D2*
X3161459D1*
X3376958D2*
X3415482D1*
X3630981D2*
X3669505D1*
X3885005D2*
X3923438D1*
X4139028D2*
X4177461D1*
X4392961D2*
X4431485D1*
X4646984D2*
X4685508D1*
X4901007D2*
X4939440D1*
X5155031D2*
X5193464D1*
X5408963D2*
X5447487D1*
X5662987D2*
X5701419D1*
X5917010D2*
X5955443D1*
X6171034D2*
X6209466D1*
X6424966D2*
X6463490D1*
X6678989D2*
X6717422D1*
X6933013D2*
X6971446D1*
X7187036D2*
X7225469D1*
X7440968D2*
X7479492D1*
X7694992D2*
X7733425D1*
X7949015D2*
X7987448D1*
X8202948D2*
X8241472D1*
X8456971D2*
X8495495D1*
X8710994D2*
X8749427D1*
X8965018D2*
X9003451D1*
X9218950D2*
X9294662D1*
X1104146Y1540717D2*
X1384844D1*
X9252856D2*
X9294662D1*
X1104146Y1477550D2*
X1384388D1*
X9253312D2*
X9294662D1*
X1104146Y1414383D2*
X1384388D1*
X9253312D2*
X9294662D1*
X1104146Y1351217D2*
X1384388D1*
X9253312D2*
X9294662D1*
X1104146Y1288050D2*
X1384388D1*
X9253312D2*
X9294662D1*
X1104146Y1224883D2*
X1384388D1*
X9253312D2*
X9294662D1*
X1104146Y1161717D2*
X1384388D1*
X9253312D2*
X9294662D1*
X1104146Y1098550D2*
X1384479D1*
X9253221D2*
X9294662D1*
X1125870Y2009657D2*
X1141456D1*
X1131621Y2021853D1*
X1119135Y2042228D1*
X1109990Y2064306D1*
X1104412Y2087543D1*
X1102537Y2111367D1*
X1104412Y2135190D1*
X1109990Y2158427D1*
X1115400Y2172403D1*
X1097750Y2134133D1*
Y1097714D1*
X1390935Y1097750D1*
X1390763Y1533433D1*
X1391592Y1543960D1*
X1394057Y1554227D1*
X1398097Y1563982D1*
X1403614Y1572986D1*
X1410487Y1581029D1*
X1400107Y1593589D1*
X1288673Y1705022D1*
X1102537Y1705077D1*
Y2009657D1*
X1125870D1*
X1539385Y1708291D2*
X1524718Y1706013D1*
X1572568Y1657757D1*
X1580296Y1647120D1*
X1586266Y1635405D1*
X1590329Y1622900D1*
X1592385Y1609914D1*
X1594812Y1590808D1*
X1603355Y1584601D1*
X1610821Y1577135D1*
X1617028Y1568592D1*
X1621821Y1559184D1*
X1625084Y1549142D1*
X1626736Y1538713D1*
X1626944Y1253433D1*
X1626943Y1101613D1*
X1644763Y1101633D1*
X1644970Y1538713D1*
X1646622Y1549142D1*
X1649885Y1559184D1*
X1654679Y1568592D1*
X1660885Y1577135D1*
X1664487Y1581029D1*
X1654107Y1593589D1*
X1539451Y1708245D1*
X1592787Y1984283D2*
X1607731Y1973169D1*
X1624629Y1956271D1*
X1635743Y1941327D1*
X1647024Y1956271D1*
X1663922Y1973169D1*
X1678867Y1984283D1*
X1663922Y1995564D1*
X1647024Y2012462D1*
X1635911Y2027407D1*
X1624629Y2012462D1*
X1607731Y1995564D1*
X1592787Y1984451D1*
X1793385Y1708291D2*
X1778718Y1706013D1*
X1826568Y1657758D1*
X1834296Y1647120D1*
X1840266Y1635405D1*
X1844329Y1622900D1*
X1846385Y1609914D1*
X1846644Y1592129D1*
X1857355Y1584601D1*
X1864821Y1577135D1*
X1871028Y1568592D1*
X1875822Y1559184D1*
X1879084Y1549142D1*
X1880736Y1538713D1*
X1880943Y1253433D1*
Y1101613D1*
X1882667Y1097750D1*
X1898799D1*
X1898971Y1538713D1*
X1900622Y1549142D1*
X1903885Y1559184D1*
X1908679Y1568592D1*
X1914885Y1577135D1*
X1918487Y1581029D1*
X1908107Y1593589D1*
X1793451Y1708245D1*
X1846787Y1984283D2*
X1861731Y1973169D1*
X1878629Y1956271D1*
X1889743Y1941327D1*
X1901024Y1956271D1*
X1917922Y1973169D1*
X1932867Y1984283D1*
X1917922Y1995564D1*
X1901024Y2012462D1*
X1889911Y2027407D1*
X1878629Y2012462D1*
X1861731Y1995564D1*
X1846787Y1984451D1*
X2047385Y1708291D2*
X2032718Y1706013D1*
X2080568Y1657757D1*
X2088296Y1647120D1*
X2094265Y1635405D1*
X2098328Y1622900D1*
X2100385Y1609914D1*
X2102812Y1590808D1*
X2111355Y1584601D1*
X2118821Y1577135D1*
X2125028Y1568592D1*
X2129821Y1559184D1*
X2133084Y1549142D1*
X2134736Y1538713D1*
X2134944Y1253433D1*
X2134943Y1101613D1*
X2139333Y1097750D1*
X2152914D1*
X2152763Y1533433D1*
X2153591Y1543960D1*
X2156056Y1554227D1*
X2160097Y1563983D1*
X2165614Y1572986D1*
X2172487Y1581029D1*
X2162107Y1593589D1*
X2047451Y1708245D1*
X2100787Y1984283D2*
X2115731Y1973169D1*
X2132629Y1956271D1*
X2143743Y1941327D1*
X2155024Y1956271D1*
X2171922Y1973169D1*
X2186867Y1984283D1*
X2171922Y1995564D1*
X2155024Y2012462D1*
X2143911Y2027407D1*
X2132629Y2012462D1*
X2115731Y1995564D1*
X2100787Y1984451D1*
X2301385Y1708291D2*
X2286718Y1706013D1*
X2334568Y1657757D1*
X2342296Y1647120D1*
X2348265Y1635405D1*
X2352328Y1622900D1*
X2354385Y1609914D1*
X2356812Y1590808D1*
X2365355Y1584601D1*
X2372821Y1577135D1*
X2379028Y1568592D1*
X2383822Y1559184D1*
X2387084Y1549142D1*
X2388736Y1538713D1*
X2388943Y1253433D1*
Y1101613D1*
X2396000Y1097750D1*
X2406846D1*
X2406971Y1538713D1*
X2408622Y1549142D1*
X2411885Y1559184D1*
X2416679Y1568592D1*
X2422885Y1577135D1*
X2426487Y1581029D1*
X2416107Y1593589D1*
X2301451Y1708245D1*
X2354787Y1984283D2*
X2369731Y1973169D1*
X2386629Y1956271D1*
X2397743Y1941327D1*
X2409024Y1956271D1*
X2425922Y1973169D1*
X2440867Y1984283D1*
X2425922Y1995564D1*
X2409024Y2012462D1*
X2397911Y2027407D1*
X2386629Y2012462D1*
X2369731Y1995564D1*
X2354787Y1984451D1*
X2555385Y1708291D2*
X2540718Y1706013D1*
X2588568Y1657757D1*
X2596296Y1647120D1*
X2602265Y1635405D1*
X2606328Y1622900D1*
X2608385Y1609914D1*
X2610812Y1590808D1*
X2619355Y1584601D1*
X2626821Y1577135D1*
X2633028Y1568592D1*
X2637821Y1559184D1*
X2641084Y1549142D1*
X2642736Y1538713D1*
X2642944Y1253433D1*
X2642943Y1101613D1*
X2652667Y1097750D1*
X2660961D1*
X2660763Y1404967D1*
X2660971Y1538713D1*
X2662623Y1549142D1*
X2665885Y1559184D1*
X2670679Y1568592D1*
X2676886Y1577135D1*
X2680487Y1581029D1*
X2670107Y1593589D1*
X2555451Y1708245D1*
X2608787Y1984283D2*
X2623731Y1973169D1*
X2640629Y1956271D1*
X2651743Y1941327D1*
X2663024Y1956271D1*
X2679922Y1973169D1*
X2694867Y1984283D1*
X2679922Y1995564D1*
X2663024Y2012462D1*
X2651911Y2027407D1*
X2640629Y2012462D1*
X2623731Y1995564D1*
X2608787Y1984451D1*
X2809385Y1708291D2*
X2794718Y1706013D1*
X2842568Y1657757D1*
X2850296Y1647120D1*
X2856265Y1635405D1*
X2860328Y1622900D1*
X2862385Y1609914D1*
X2864812Y1590808D1*
X2873355Y1584601D1*
X2880821Y1577135D1*
X2887028Y1568592D1*
X2891821Y1559184D1*
X2895084Y1549142D1*
X2896736Y1538713D1*
X2896943Y1253433D1*
Y1101613D1*
X2909333Y1097750D1*
X2914893D1*
X2914763Y1533433D1*
X2915592Y1543960D1*
X2918057Y1554227D1*
X2922097Y1563982D1*
X2927614Y1572986D1*
X2934487Y1581029D1*
X2924107Y1593589D1*
X2809451Y1708245D1*
X2862787Y1984283D2*
X2877731Y1973169D1*
X2894629Y1956271D1*
X2905743Y1941327D1*
X2917024Y1956271D1*
X2933922Y1973169D1*
X2948867Y1984283D1*
X2933922Y1995564D1*
X2917024Y2012462D1*
X2905911Y2027407D1*
X2894629Y2012462D1*
X2877731Y1995564D1*
X2862787Y1984451D1*
X3063385Y1708291D2*
X3048718Y1706013D1*
X3096568Y1657757D1*
X3104296Y1647120D1*
X3110265Y1635405D1*
X3114328Y1622900D1*
X3116385Y1609914D1*
X3118812Y1590808D1*
X3127355Y1584601D1*
X3134821Y1577135D1*
X3141028Y1568592D1*
X3145821Y1559184D1*
X3149084Y1549142D1*
X3150736Y1538713D1*
X3150944Y1253433D1*
X3150943Y1101613D1*
X3166000Y1097750D1*
X3168825D1*
X3168971Y1538713D1*
X3170623Y1549142D1*
X3173885Y1559184D1*
X3178679Y1568592D1*
X3184886Y1577135D1*
X3188487Y1581029D1*
X3178107Y1593589D1*
X3063451Y1708245D1*
X3116787Y1984283D2*
X3131731Y1973169D1*
X3148629Y1956271D1*
X3159743Y1941327D1*
X3171024Y1956271D1*
X3187922Y1973169D1*
X3202867Y1984283D1*
X3187922Y1995564D1*
X3171024Y2012462D1*
X3159911Y2027407D1*
X3148629Y2012462D1*
X3131731Y1995564D1*
X3116787Y1984451D1*
X3317385Y1708291D2*
X3302718Y1706013D1*
X3350568Y1657757D1*
X3358296Y1647120D1*
X3364265Y1635405D1*
X3368328Y1622900D1*
X3370385Y1609914D1*
X3372812Y1590808D1*
X3381355Y1584601D1*
X3388821Y1577135D1*
X3395028Y1568592D1*
X3399821Y1559184D1*
X3403084Y1549142D1*
X3404736Y1538713D1*
X3404943Y1253433D1*
Y1101613D1*
X3422940Y1097750D1*
X3422763Y1533433D1*
X3423592Y1543960D1*
X3426056Y1554227D1*
X3430097Y1563982D1*
X3435614Y1572986D1*
X3442487Y1581029D1*
X3432107Y1593589D1*
X3317451Y1708245D1*
X3370787Y1984283D2*
X3385731Y1973169D1*
X3402629Y1956271D1*
X3413743Y1941327D1*
X3425024Y1956271D1*
X3441922Y1973169D1*
X3456867Y1984283D1*
X3441922Y1995564D1*
X3425024Y2012462D1*
X3413911Y2027407D1*
X3402629Y2012462D1*
X3385731Y1995564D1*
X3370787Y1984451D1*
X3571385Y1708291D2*
X3556718Y1706013D1*
X3604568Y1657757D1*
X3612296Y1647120D1*
X3618265Y1635405D1*
X3622328Y1622900D1*
X3624385Y1609914D1*
X3626812Y1590808D1*
X3635355Y1584601D1*
X3642821Y1577135D1*
X3649028Y1568592D1*
X3653821Y1559184D1*
X3657084Y1549142D1*
X3658736Y1538713D1*
X3658944Y1253433D1*
X3658943Y1101613D1*
X3676764Y1101654D1*
X3676971Y1538713D1*
X3678623Y1549142D1*
X3681885Y1559184D1*
X3686679Y1568592D1*
X3692886Y1577135D1*
X3696487Y1581029D1*
X3686107Y1593589D1*
X3571451Y1708245D1*
X3624787Y1984283D2*
X3639731Y1973169D1*
X3656629Y1956271D1*
X3667743Y1941327D1*
X3679024Y1956271D1*
X3695922Y1973169D1*
X3710867Y1984283D1*
X3695922Y1995564D1*
X3679024Y2012462D1*
X3667911Y2027407D1*
X3656629Y2012462D1*
X3639731Y1995564D1*
X3624787Y1984451D1*
X3825385Y1708291D2*
X3810718Y1706013D1*
X3858568Y1657757D1*
X3866296Y1647120D1*
X3872265Y1635405D1*
X3876329Y1622900D1*
X3878385Y1609914D1*
X3880812Y1590808D1*
X3889355Y1584601D1*
X3896821Y1577135D1*
X3903028Y1568592D1*
X3907821Y1559184D1*
X3911084Y1549142D1*
X3912736Y1538713D1*
X3912943Y1253433D1*
Y1101613D1*
X3930764Y1101654D1*
X3930970Y1538713D1*
X3932622Y1549142D1*
X3935885Y1559184D1*
X3940679Y1568592D1*
X3946885Y1577135D1*
X3950487Y1581029D1*
X3940107Y1593589D1*
X3825451Y1708245D1*
X3878787Y1984283D2*
X3893731Y1973169D1*
X3910629Y1956271D1*
X3921743Y1941327D1*
X3933024Y1956271D1*
X3949922Y1973169D1*
X3964867Y1984283D1*
X3949922Y1995564D1*
X3933024Y2012462D1*
X3921911Y2027407D1*
X3910629Y2012462D1*
X3893731Y1995564D1*
X3878787Y1984451D1*
X4079385Y1708291D2*
X4064718Y1706013D1*
X4112568Y1657757D1*
X4120296Y1647120D1*
X4126266Y1635405D1*
X4130329Y1622900D1*
X4132385Y1609914D1*
X4134812Y1590808D1*
X4143355Y1584601D1*
X4150821Y1577135D1*
X4157028Y1568592D1*
X4161821Y1559184D1*
X4165084Y1549142D1*
X4166736Y1538713D1*
X4166944Y1253433D1*
X4166943Y1101613D1*
X4169333Y1097750D1*
X4184919D1*
X4184763Y1533433D1*
X4185592Y1543960D1*
X4188057Y1554227D1*
X4192097Y1563982D1*
X4197615Y1572985D1*
X4204487Y1581029D1*
X4194107Y1593589D1*
X4079451Y1708245D1*
X4132787Y1984283D2*
X4147731Y1973169D1*
X4164629Y1956271D1*
X4175743Y1941327D1*
X4187024Y1956271D1*
X4203922Y1973169D1*
X4218867Y1984283D1*
X4203922Y1995564D1*
X4187024Y2012462D1*
X4175911Y2027407D1*
X4164629Y2012462D1*
X4147731Y1995564D1*
X4132787Y1984451D1*
X4333385Y1708291D2*
X4318718Y1706013D1*
X4366568Y1657758D1*
X4374296Y1647120D1*
X4380266Y1635405D1*
X4384329Y1622900D1*
X4386385Y1609914D1*
X4388812Y1590808D1*
X4397355Y1584601D1*
X4404821Y1577135D1*
X4411028Y1568592D1*
X4415821Y1559184D1*
X4419084Y1549142D1*
X4420736Y1538713D1*
X4420943Y1253433D1*
Y1101613D1*
X4426000Y1097750D1*
X4438851D1*
X4438970Y1538713D1*
X4440622Y1549142D1*
X4443885Y1559184D1*
X4448679Y1568592D1*
X4454885Y1577135D1*
X4458487Y1581029D1*
X4448107Y1593589D1*
X4333451Y1708245D1*
X4386787Y1984283D2*
X4401731Y1973169D1*
X4418629Y1956271D1*
X4429743Y1941327D1*
X4441024Y1956271D1*
X4457922Y1973169D1*
X4472867Y1984283D1*
X4457922Y1995564D1*
X4441024Y2012462D1*
X4429911Y2027407D1*
X4418629Y2012462D1*
X4401731Y1995564D1*
X4386787Y1984451D1*
X4587385Y1708291D2*
X4572718Y1706013D1*
X4620568Y1657757D1*
X4628296Y1647120D1*
X4634265Y1635405D1*
X4638328Y1622900D1*
X4640385Y1609914D1*
X4642812Y1590808D1*
X4651355Y1584601D1*
X4658821Y1577135D1*
X4665028Y1568592D1*
X4669822Y1559184D1*
X4673084Y1549142D1*
X4674736Y1538713D1*
X4674944Y1253433D1*
X4674943Y1101613D1*
X4682667Y1097750D1*
X4692966D1*
X4692763Y1358300D1*
X4692971Y1538713D1*
X4694622Y1549142D1*
X4697885Y1559184D1*
X4702679Y1568592D1*
X4708886Y1577135D1*
X4712487Y1581029D1*
X4702107Y1593589D1*
X4587451Y1708245D1*
X4640787Y1984283D2*
X4655731Y1973169D1*
X4672629Y1956271D1*
X4683743Y1941327D1*
X4695024Y1956271D1*
X4711922Y1973169D1*
X4726867Y1984283D1*
X4711922Y1995564D1*
X4695024Y2012462D1*
X4683911Y2027407D1*
X4672629Y2012462D1*
X4655731Y1995564D1*
X4640787Y1984451D1*
X4841385Y1708291D2*
X4826718Y1706013D1*
X4874568Y1657757D1*
X4882296Y1647120D1*
X4888265Y1635405D1*
X4892328Y1622900D1*
X4894385Y1609914D1*
X4896812Y1590808D1*
X4905355Y1584601D1*
X4912821Y1577135D1*
X4919028Y1568592D1*
X4923821Y1559184D1*
X4927084Y1549142D1*
X4928736Y1538713D1*
X4928943Y1253433D1*
Y1101613D1*
X4939333Y1097750D1*
X4946898D1*
X4946763Y1533433D1*
X4947591Y1543960D1*
X4950056Y1554227D1*
X4954097Y1563982D1*
X4959614Y1572986D1*
X4966487Y1581029D1*
X4956107Y1593589D1*
X4841451Y1708245D1*
X4894787Y1984283D2*
X4909731Y1973169D1*
X4926629Y1956271D1*
X4937743Y1941327D1*
X4949024Y1956271D1*
X4965922Y1973169D1*
X4980867Y1984283D1*
X4965922Y1995564D1*
X4949024Y2012462D1*
X4937911Y2027407D1*
X4926629Y2012462D1*
X4909731Y1995564D1*
X4894787Y1984451D1*
X5095385Y1708291D2*
X5080718Y1706013D1*
X5128568Y1657757D1*
X5136296Y1647120D1*
X5142265Y1635405D1*
X5146328Y1622900D1*
X5148385Y1609914D1*
X5150812Y1590808D1*
X5159355Y1584601D1*
X5166821Y1577135D1*
X5173028Y1568592D1*
X5177822Y1559184D1*
X5181084Y1549142D1*
X5182736Y1538713D1*
X5182944Y1253433D1*
X5182943Y1101613D1*
X5196000Y1097750D1*
X5200831D1*
X5200971Y1538713D1*
X5202622Y1549142D1*
X5205885Y1559184D1*
X5210679Y1568592D1*
X5216886Y1577135D1*
X5220487Y1581029D1*
X5210107Y1593589D1*
X5095451Y1708245D1*
X5148787Y1984283D2*
X5163731Y1973169D1*
X5180629Y1956271D1*
X5191743Y1941327D1*
X5203024Y1956271D1*
X5219922Y1973169D1*
X5234867Y1984283D1*
X5219922Y1995564D1*
X5203024Y2012462D1*
X5191911Y2027407D1*
X5180629Y2012462D1*
X5163731Y1995564D1*
X5148787Y1984451D1*
X5349385Y1708291D2*
X5334718Y1706013D1*
X5382568Y1657757D1*
X5390296Y1647120D1*
X5396265Y1635405D1*
X5400328Y1622900D1*
X5402385Y1609914D1*
X5404812Y1590808D1*
X5413355Y1584601D1*
X5420821Y1577135D1*
X5427028Y1568592D1*
X5431821Y1559184D1*
X5435084Y1549142D1*
X5436736Y1538713D1*
X5436943Y1253433D1*
Y1101613D1*
X5454945Y1097750D1*
X5454763Y1474967D1*
X5454970Y1538713D1*
X5456622Y1549142D1*
X5459885Y1559184D1*
X5464679Y1568592D1*
X5470885Y1577135D1*
X5474487Y1581029D1*
X5464107Y1593589D1*
X5349451Y1708245D1*
X5402787Y1984283D2*
X5417731Y1973169D1*
X5434629Y1956271D1*
X5445743Y1941327D1*
X5457024Y1956271D1*
X5473922Y1973169D1*
X5488867Y1984283D1*
X5473922Y1995564D1*
X5457024Y2012462D1*
X5445911Y2027407D1*
X5434629Y2012462D1*
X5417731Y1995564D1*
X5402787Y1984451D1*
X5603385Y1708291D2*
X5588718Y1706013D1*
X5636568Y1657757D1*
X5644296Y1647120D1*
X5650265Y1635405D1*
X5654328Y1622900D1*
X5656385Y1609914D1*
X5658812Y1590808D1*
X5667355Y1584601D1*
X5674821Y1577135D1*
X5681028Y1568592D1*
X5685822Y1559184D1*
X5689084Y1549142D1*
X5690736Y1538713D1*
X5690944Y1253433D1*
X5690943Y1101613D1*
X5708764Y1101654D1*
X5708971Y1538713D1*
X5710622Y1549142D1*
X5713885Y1559184D1*
X5718679Y1568592D1*
X5724886Y1577135D1*
X5728487Y1581029D1*
X5718107Y1593589D1*
X5603451Y1708245D1*
X5656787Y1984283D2*
X5671731Y1973169D1*
X5688629Y1956271D1*
X5699743Y1941327D1*
X5711024Y1956271D1*
X5727922Y1973169D1*
X5742867Y1984283D1*
X5727922Y1995564D1*
X5711024Y2012462D1*
X5699911Y2027407D1*
X5688629Y2012462D1*
X5671731Y1995564D1*
X5656787Y1984451D1*
X5857385Y1708291D2*
X5842718Y1706013D1*
X5890568Y1657757D1*
X5898296Y1647120D1*
X5904265Y1635405D1*
X5908328Y1622900D1*
X5910385Y1609914D1*
X5912812Y1590808D1*
X5921355Y1584601D1*
X5928821Y1577135D1*
X5935028Y1568592D1*
X5939821Y1559184D1*
X5943084Y1549142D1*
X5944736Y1538713D1*
X5944944Y1253433D1*
X5944943Y1101613D1*
X5962764Y1101654D1*
X5962970Y1538713D1*
X5964622Y1549142D1*
X5967885Y1559184D1*
X5972679Y1568592D1*
X5978885Y1577135D1*
X5982487Y1581029D1*
X5972107Y1593589D1*
X5857451Y1708245D1*
X5910787Y1984283D2*
X5925731Y1973169D1*
X5942629Y1956271D1*
X5953743Y1941327D1*
X5965024Y1956271D1*
X5981922Y1973169D1*
X5996867Y1984283D1*
X5981922Y1995564D1*
X5965024Y2012462D1*
X5953911Y2027407D1*
X5942629Y2012462D1*
X5925731Y1995564D1*
X5910787Y1984451D1*
X6111385Y1708291D2*
X6096718Y1706013D1*
X6144568Y1657757D1*
X6152296Y1647120D1*
X6158265Y1635405D1*
X6162328Y1622900D1*
X6164385Y1609914D1*
X6166812Y1590808D1*
X6175355Y1584601D1*
X6182821Y1577135D1*
X6189028Y1568592D1*
X6193822Y1559184D1*
X6197084Y1549142D1*
X6198736Y1538713D1*
X6198944Y1253433D1*
X6199333Y1097750D1*
X6216924D1*
X6216763Y1533433D1*
X6217592Y1543960D1*
X6220057Y1554227D1*
X6224097Y1563982D1*
X6229614Y1572985D1*
X6236487Y1581029D1*
X6226107Y1593589D1*
X6111451Y1708245D1*
X6164787Y1984283D2*
X6179731Y1973169D1*
X6196629Y1956271D1*
X6207743Y1941327D1*
X6219024Y1956271D1*
X6235922Y1973169D1*
X6250867Y1984283D1*
X6235922Y1995564D1*
X6219024Y2012462D1*
X6207911Y2027407D1*
X6196629Y2012462D1*
X6179731Y1995564D1*
X6164787Y1984451D1*
X6365385Y1708291D2*
X6350718Y1706013D1*
X6398568Y1657757D1*
X6406296Y1647120D1*
X6412265Y1635405D1*
X6416329Y1622900D1*
X6418385Y1609914D1*
X6420812Y1590808D1*
X6429355Y1584601D1*
X6436821Y1577135D1*
X6443028Y1568592D1*
X6447821Y1559184D1*
X6451084Y1549142D1*
X6452736Y1538713D1*
X6452944Y1253433D1*
X6452943Y1101613D1*
X6456000Y1097750D1*
X6470857D1*
X6470970Y1538713D1*
X6472622Y1549142D1*
X6475885Y1559184D1*
X6480679Y1568592D1*
X6486885Y1577135D1*
X6490487Y1581029D1*
X6480107Y1593589D1*
X6365451Y1708245D1*
X6418787Y1984283D2*
X6433731Y1973169D1*
X6450629Y1956271D1*
X6461743Y1941327D1*
X6473024Y1956271D1*
X6489922Y1973169D1*
X6504867Y1984283D1*
X6489922Y1995564D1*
X6473024Y2012462D1*
X6461911Y2027407D1*
X6450629Y2012462D1*
X6433731Y1995564D1*
X6418787Y1984451D1*
X6619385Y1708291D2*
X6604718Y1706013D1*
X6652568Y1657757D1*
X6660296Y1647120D1*
X6666266Y1635405D1*
X6670329Y1622900D1*
X6672385Y1609914D1*
X6674812Y1590808D1*
X6683355Y1584601D1*
X6690821Y1577135D1*
X6697028Y1568592D1*
X6701822Y1559184D1*
X6705084Y1549142D1*
X6706736Y1538713D1*
X6706943Y1253433D1*
Y1101613D1*
X6712667Y1097750D1*
X6724789D1*
X6724971Y1538713D1*
X6726622Y1549142D1*
X6729885Y1559184D1*
X6734679Y1568592D1*
X6740885Y1577135D1*
X6744487Y1581029D1*
X6734107Y1593589D1*
X6619451Y1708245D1*
X6672787Y1984283D2*
X6687731Y1973169D1*
X6704629Y1956271D1*
X6715743Y1941327D1*
X6727024Y1956271D1*
X6743922Y1973169D1*
X6758867Y1984283D1*
X6743922Y1995564D1*
X6727024Y2012462D1*
X6715911Y2027407D1*
X6704629Y2012462D1*
X6687731Y1995564D1*
X6672787Y1984451D1*
X6873385Y1708291D2*
X6858718Y1706013D1*
X6906568Y1657757D1*
X6914296Y1647120D1*
X6920266Y1635405D1*
X6924329Y1622900D1*
X6926385Y1609914D1*
X6928812Y1590808D1*
X6937355Y1584601D1*
X6944821Y1577135D1*
X6951028Y1568592D1*
X6955821Y1559184D1*
X6959084Y1549142D1*
X6960736Y1538713D1*
X6960944Y1253433D1*
X6960943Y1101613D1*
X6969333Y1097750D1*
X6978904D1*
X6978763Y1533433D1*
X6979591Y1543960D1*
X6982056Y1554227D1*
X6986097Y1563983D1*
X6991614Y1572986D1*
X6998487Y1581029D1*
X6988107Y1593589D1*
X6873451Y1708245D1*
X6926787Y1984283D2*
X6941731Y1973169D1*
X6958629Y1956271D1*
X6969743Y1941327D1*
X6981024Y1956271D1*
X6997922Y1973169D1*
X7012867Y1984283D1*
X6997922Y1995564D1*
X6981024Y2012462D1*
X6969911Y2027407D1*
X6958629Y2012462D1*
X6941731Y1995564D1*
X6926787Y1984451D1*
X7127385Y1708291D2*
X7112718Y1706013D1*
X7160568Y1657758D1*
X7168296Y1647120D1*
X7174266Y1635405D1*
X7178329Y1622900D1*
X7180385Y1609914D1*
X7180644Y1592129D1*
X7191355Y1584601D1*
X7198821Y1577135D1*
X7205028Y1568592D1*
X7209822Y1559184D1*
X7213084Y1549142D1*
X7214736Y1538713D1*
X7214943Y1253433D1*
Y1101613D1*
X7226000Y1097750D1*
X7232836D1*
X7232971Y1538713D1*
X7234622Y1549142D1*
X7237885Y1559184D1*
X7242679Y1568592D1*
X7248885Y1577135D1*
X7252487Y1581029D1*
X7242107Y1593589D1*
X7127451Y1708245D1*
X7180787Y1984283D2*
X7195731Y1973169D1*
X7212629Y1956271D1*
X7223743Y1941327D1*
X7235024Y1956271D1*
X7251922Y1973169D1*
X7266867Y1984283D1*
X7251922Y1995564D1*
X7235024Y2012462D1*
X7223911Y2027407D1*
X7212629Y2012462D1*
X7195731Y1995564D1*
X7180787Y1984451D1*
X7381385Y1708291D2*
X7366718Y1706013D1*
X7414568Y1657757D1*
X7422296Y1647120D1*
X7428265Y1635405D1*
X7432328Y1622900D1*
X7434385Y1609914D1*
X7436812Y1590808D1*
X7445355Y1584601D1*
X7452821Y1577135D1*
X7459028Y1568592D1*
X7463821Y1559184D1*
X7467084Y1549142D1*
X7468736Y1538713D1*
X7468944Y1253433D1*
X7468943Y1101613D1*
X7482667Y1097750D1*
X7486950D1*
X7486763Y1451633D1*
X7486970Y1538713D1*
X7488622Y1549142D1*
X7491885Y1559184D1*
X7496679Y1568592D1*
X7502885Y1577135D1*
X7506487Y1581029D1*
X7496107Y1593589D1*
X7381451Y1708245D1*
X7434787Y1984283D2*
X7449731Y1973169D1*
X7466629Y1956271D1*
X7477743Y1941327D1*
X7489024Y1956271D1*
X7505922Y1973169D1*
X7520867Y1984283D1*
X7505922Y1995564D1*
X7489024Y2012462D1*
X7477911Y2027407D1*
X7466629Y2012462D1*
X7449731Y1995564D1*
X7434787Y1984451D1*
X7635385Y1708291D2*
X7620718Y1706013D1*
X7668568Y1657757D1*
X7676296Y1647120D1*
X7682265Y1635405D1*
X7686328Y1622900D1*
X7688385Y1609914D1*
X7690812Y1590808D1*
X7699355Y1584601D1*
X7706821Y1577135D1*
X7713028Y1568592D1*
X7717822Y1559184D1*
X7721084Y1549142D1*
X7722736Y1538713D1*
X7722943Y1253433D1*
Y1101613D1*
X7740883Y1097750D1*
X7740763Y1533433D1*
X7741592Y1543960D1*
X7744057Y1554227D1*
X7748097Y1563982D1*
X7753614Y1572986D1*
X7760487Y1581029D1*
X7750107Y1593589D1*
X7635451Y1708245D1*
X7688787Y1984283D2*
X7703731Y1973169D1*
X7720629Y1956271D1*
X7731743Y1941327D1*
X7743024Y1956271D1*
X7759922Y1973169D1*
X7774867Y1984283D1*
X7759922Y1995564D1*
X7743024Y2012462D1*
X7731911Y2027407D1*
X7720629Y2012462D1*
X7703731Y1995564D1*
X7688787Y1984451D1*
X7889385Y1708291D2*
X7874718Y1706013D1*
X7922568Y1657757D1*
X7930296Y1647120D1*
X7936265Y1635405D1*
X7940328Y1622900D1*
X7942385Y1609914D1*
X7944812Y1590808D1*
X7953355Y1584601D1*
X7960821Y1577135D1*
X7967028Y1568592D1*
X7971821Y1559184D1*
X7975084Y1549142D1*
X7976736Y1538713D1*
X7976944Y1253433D1*
X7976943Y1101613D1*
X7994764Y1101654D1*
X7994971Y1538713D1*
X7996623Y1549142D1*
X7999885Y1559184D1*
X8004679Y1568592D1*
X8010886Y1577135D1*
X8014487Y1581029D1*
X8004107Y1593589D1*
X7889451Y1708245D1*
X7942787Y1984283D2*
X7957731Y1973169D1*
X7974629Y1956271D1*
X7985743Y1941327D1*
X7997024Y1956271D1*
X8013922Y1973169D1*
X8028867Y1984283D1*
X8013922Y1995564D1*
X7997024Y2012462D1*
X7985911Y2027407D1*
X7974629Y2012462D1*
X7957731Y1995564D1*
X7942787Y1984451D1*
X8143385Y1708291D2*
X8128718Y1706013D1*
X8176568Y1657757D1*
X8184296Y1647120D1*
X8190265Y1635405D1*
X8194328Y1622900D1*
X8196385Y1609914D1*
X8198812Y1590808D1*
X8207355Y1584601D1*
X8214821Y1577135D1*
X8221028Y1568592D1*
X8225821Y1559184D1*
X8229084Y1549142D1*
X8230736Y1538713D1*
X8230943Y1253433D1*
Y1101613D1*
X8248764Y1101654D1*
X8248971Y1538713D1*
X8250622Y1549142D1*
X8253885Y1559184D1*
X8258679Y1568592D1*
X8264885Y1577135D1*
X8268487Y1581029D1*
X8258107Y1593589D1*
X8143451Y1708245D1*
X8196787Y1984283D2*
X8211731Y1973169D1*
X8228629Y1956271D1*
X8239743Y1941327D1*
X8251024Y1956271D1*
X8267922Y1973169D1*
X8282867Y1984283D1*
X8267922Y1995564D1*
X8251024Y2012462D1*
X8239911Y2027407D1*
X8228629Y2012462D1*
X8211731Y1995564D1*
X8196787Y1984451D1*
X8397385Y1708291D2*
X8382718Y1706013D1*
X8430568Y1657757D1*
X8438296Y1647120D1*
X8444265Y1635405D1*
X8448328Y1622900D1*
X8450385Y1609914D1*
X8452812Y1590808D1*
X8461355Y1584601D1*
X8468821Y1577135D1*
X8475028Y1568592D1*
X8479821Y1559184D1*
X8483084Y1549142D1*
X8484736Y1538713D1*
X8484944Y1253433D1*
X8484943Y1101613D1*
X8486000Y1097750D1*
X8502862D1*
X8502971Y1538713D1*
X8504623Y1549142D1*
X8507885Y1559184D1*
X8512679Y1568592D1*
X8518886Y1577135D1*
X8522487Y1581029D1*
X8512107Y1593589D1*
X8397451Y1708245D1*
X8450787Y1984283D2*
X8465731Y1973169D1*
X8482629Y1956271D1*
X8493743Y1941327D1*
X8505024Y1956271D1*
X8521922Y1973169D1*
X8536867Y1984283D1*
X8521922Y1995564D1*
X8505024Y2012462D1*
X8493911Y2027407D1*
X8482629Y2012462D1*
X8465731Y1995564D1*
X8450787Y1984451D1*
X8651385Y1708291D2*
X8636718Y1706013D1*
X8684568Y1657757D1*
X8692296Y1647120D1*
X8698265Y1635405D1*
X8702328Y1622900D1*
X8704385Y1609914D1*
X8706812Y1590808D1*
X8715355Y1584601D1*
X8722821Y1577135D1*
X8729028Y1568592D1*
X8733821Y1559184D1*
X8737084Y1549142D1*
X8738736Y1538713D1*
X8738943Y1253433D1*
Y1101613D1*
X8742667Y1097750D1*
X8756794D1*
X8756971Y1538713D1*
X8758622Y1549142D1*
X8761885Y1559184D1*
X8766679Y1568592D1*
X8772885Y1577135D1*
X8776487Y1581029D1*
X8766107Y1593589D1*
X8651451Y1708245D1*
X8704787Y1984283D2*
X8719731Y1973169D1*
X8736629Y1956271D1*
X8747743Y1941327D1*
X8759024Y1956271D1*
X8775922Y1973169D1*
X8790867Y1984283D1*
X8775922Y1995564D1*
X8759024Y2012462D1*
X8747911Y2027407D1*
X8736629Y2012462D1*
X8719731Y1995564D1*
X8704787Y1984451D1*
X9026647Y1845418D2*
X9023902Y1826809D1*
X9192568Y1657757D1*
X9200296Y1647120D1*
X9206265Y1635405D1*
X9210329Y1622900D1*
X9212385Y1609914D1*
X9214812Y1590808D1*
X9223355Y1584601D1*
X9230821Y1577135D1*
X9237028Y1568592D1*
X9241821Y1559184D1*
X9245084Y1549142D1*
X9246736Y1538713D1*
X9246943Y1253433D1*
Y1101613D1*
X9256000Y1097750D1*
X9300935D1*
X9301006Y2172419D1*
X9014384Y2172383D1*
X9019663Y2158427D1*
X9025242Y2135190D1*
X9027117Y2111367D1*
X9025242Y2087543D1*
X9019663Y2064306D1*
X9010518Y2042228D1*
X8998032Y2021853D1*
X8982512Y2003681D1*
X8964340Y1988161D1*
X8958787Y1984451D1*
X8973731Y1973169D1*
X8990629Y1956271D1*
X9004675Y1936938D1*
X9015524Y1915646D1*
X9022909Y1892918D1*
X9026647Y1869315D1*
Y1845418D1*
X8905385Y1708291D2*
X8890718Y1706013D1*
X8938568Y1657757D1*
X8946296Y1647120D1*
X8952265Y1635405D1*
X8956328Y1622900D1*
X8958385Y1609914D1*
X8960812Y1590808D1*
X8969355Y1584601D1*
X8976821Y1577135D1*
X8983028Y1568592D1*
X8987821Y1559184D1*
X8991084Y1549142D1*
X8992736Y1538713D1*
X8992944Y1253433D1*
X8992943Y1101613D1*
X8999333Y1097750D1*
X9010909D1*
X9010763Y1533433D1*
X9011592Y1543960D1*
X9014057Y1554227D1*
X9018097Y1563982D1*
X9023615Y1572985D1*
X9030487Y1581029D1*
X9020107Y1593589D1*
X8905451Y1708245D1*
D16*
X1254827Y1857367D3*
D17*
Y2111367D3*
X1508827Y1857367D3*
Y2111367D3*
X1762827Y1857367D3*
Y2111367D3*
X2016827Y1857367D3*
Y2111367D3*
X2270827Y1857367D3*
Y2111367D3*
X2524827Y1857367D3*
Y2111367D3*
X2778827Y1857367D3*
Y2111367D3*
X3032827Y1857367D3*
Y2111367D3*
X3286827Y1857367D3*
Y2111367D3*
X3540827Y1857367D3*
Y2111367D3*
X3794827Y1857367D3*
Y2111367D3*
X4048827Y1857367D3*
Y2111367D3*
X4302827Y1857367D3*
Y2111367D3*
X4556827Y1857367D3*
Y2111367D3*
X4810827Y1857367D3*
Y2111367D3*
X5064827Y1857367D3*
Y2111367D3*
X5318827Y1857367D3*
Y2111367D3*
X5572827Y1857367D3*
Y2111367D3*
X5826827Y1857367D3*
Y2111367D3*
X6080827Y1857367D3*
Y2111367D3*
X6334827Y1857367D3*
Y2111367D3*
X6588827Y1857367D3*
Y2111367D3*
X6842827Y1857367D3*
Y2111367D3*
X7096827Y1857367D3*
Y2111367D3*
X7350827Y1857367D3*
Y2111367D3*
X7604827Y1857367D3*
Y2111367D3*
X7858827Y1857367D3*
Y2111367D3*
X8112827Y1857367D3*
Y2111367D3*
X8366827Y1857367D3*
Y2111367D3*
X8620827Y1857367D3*
Y2111367D3*
X8874827Y1857367D3*
Y2111367D3*
D27*
X9128853Y1317533D3*
X8874853D3*
X8620853D3*
X8366853D3*
X8112853D3*
X7858853D3*
X7604853D3*
X7350853D3*
X7096853D3*
X6842853D3*
X6588853D3*
X6334853D3*
X6080853D3*
X5826853D3*
X5572853D3*
X5318853D3*
X5064853D3*
X4810853D3*
X4556853D3*
X4302853D3*
X4048853D3*
X3794853D3*
X3540853D3*
X3286853D3*
X3032853D3*
X2778853D3*
X2524853D3*
X2270853D3*
X2016853D3*
X1762853D3*
X1508853D3*
M02*
