G04 DipTrace 3.1.0.1*
G04 TopDimension.gbr*
%MOMM*%
G04 #@! TF.FileFunction,Drawing,Top*
G04 #@! TF.Part,Single*
%ADD13C,0.035*%
%ADD26C,0.15686*%
%FSLAX35Y35*%
G04*
G71*
G90*
G75*
G01*
G04 TopDimension*
%LPD*%
X1000000Y2270133D2*
D13*
Y2494777D1*
X9398757Y2270133D2*
Y2494777D1*
X5199378Y2444777D2*
X1100000D1*
G36*
X1000000D2*
X1100000Y2464777D1*
Y2424777D1*
X1000000Y2444777D1*
G37*
X5199378D2*
D13*
X9298757D1*
G36*
X9398757D2*
X9298757Y2424777D1*
Y2464777D1*
X9398757Y2444777D1*
G37*
Y2270133D2*
D13*
X9686907D1*
X9398757Y1000000D2*
X9686907D1*
X9636907Y1635067D2*
Y2170133D1*
G36*
Y2270133D2*
X9656907Y2170133D1*
X9616907D1*
X9636907Y2270133D1*
G37*
Y1635067D2*
D13*
Y1100000D1*
G36*
Y1000000D2*
X9616907Y1100000D1*
X9656907D1*
X9636907Y1000000D1*
G37*
X5032618Y2577767D2*
D26*
X5018130Y2572938D1*
X5013189Y2563280D1*
Y2553509D1*
X5018130Y2543850D1*
X5027789Y2538909D1*
X5047218Y2534080D1*
X5061818Y2529250D1*
X5071476Y2519480D1*
X5076306Y2509821D1*
Y2495221D1*
X5071476Y2485563D1*
X5066647Y2480621D1*
X5052047Y2475792D1*
X5032618D1*
X5018130Y2480621D1*
X5013189Y2485563D1*
X5008359Y2495221D1*
Y2509821D1*
X5013189Y2519480D1*
X5022959Y2529250D1*
X5037447Y2534080D1*
X5056876Y2538909D1*
X5066647Y2543850D1*
X5071476Y2553509D1*
Y2563280D1*
X5066647Y2572938D1*
X5052047Y2577767D1*
X5032618D1*
X5117449D2*
X5170795D1*
X5141707Y2538909D1*
X5156307D1*
X5165966Y2534080D1*
X5170795Y2529250D1*
X5175737Y2514650D1*
Y2504992D1*
X5170795Y2490392D1*
X5161137Y2480621D1*
X5146537Y2475792D1*
X5131937D1*
X5117449Y2480621D1*
X5112620Y2485563D1*
X5107678Y2495221D1*
X5211938Y2485563D2*
X5207109Y2480621D1*
X5211938Y2475792D1*
X5216880Y2480621D1*
X5211938Y2485563D1*
X5311482Y2543850D2*
X5306540Y2529250D1*
X5296882Y2519480D1*
X5282282Y2514650D1*
X5277452D1*
X5262852Y2519480D1*
X5253194Y2529250D1*
X5248252Y2543850D1*
Y2548680D1*
X5253194Y2563280D1*
X5262852Y2572938D1*
X5277452Y2577767D1*
X5282282D1*
X5296882Y2572938D1*
X5306540Y2563280D1*
X5311482Y2543850D1*
Y2519480D1*
X5306540Y2495221D1*
X5296882Y2480621D1*
X5282282Y2475792D1*
X5272623D1*
X5258023Y2480621D1*
X5253194Y2490392D1*
X5406083Y2543850D2*
X5401142Y2529250D1*
X5391483Y2519480D1*
X5376883Y2514650D1*
X5372054D1*
X5357454Y2519480D1*
X5347796Y2529250D1*
X5342854Y2543850D1*
Y2548680D1*
X5347796Y2563280D1*
X5357454Y2572938D1*
X5372054Y2577767D1*
X5376883D1*
X5391483Y2572938D1*
X5401142Y2563280D1*
X5406083Y2543850D1*
Y2519480D1*
X5401142Y2495221D1*
X5391483Y2480621D1*
X5376883Y2475792D1*
X5367225D1*
X5352625Y2480621D1*
X5347796Y2490392D1*
X9750468Y1759412D2*
X9755410Y1749641D1*
X9769897Y1735041D1*
X9667922D1*
X9745639Y1698727D2*
X9750468D1*
X9760239Y1693897D1*
X9765068Y1689068D1*
X9769897Y1679297D1*
Y1659868D1*
X9765068Y1650210D1*
X9760239Y1645381D1*
X9750468Y1640439D1*
X9740810D1*
X9731039Y1645381D1*
X9716551Y1655039D1*
X9667922Y1703668D1*
Y1635610D1*
X9677693Y1599408D2*
X9672751Y1604237D1*
X9667922Y1599408D1*
X9672751Y1594466D1*
X9677693Y1599408D1*
X9667922Y1543665D2*
X9769897Y1495035D1*
Y1563094D1*
M02*
