G04 DipTrace 3.1.0.1*
G04 TopMask.gbr*
%MOMM*%
G04 #@! TF.FileFunction,Soldermask,Top*
G04 #@! TF.Part,Single*
%AMOUTLINE1*
4,1,4,
0.608,2.259,
-0.608,2.259,
-0.608,-2.259,
0.608,-2.259,
0.608,2.259,
0*%
%ADD20C,1.9*%
%ADD22R,1.9X1.9*%
%ADD28OUTLINE1*%
%FSLAX35Y35*%
G04*
G71*
G90*
G75*
G01*
G04 TopMask*
%LPD*%
D22*
X1254827Y1857367D3*
D20*
Y2111367D3*
X1508827Y1857367D3*
Y2111367D3*
X1762827Y1857367D3*
Y2111367D3*
X2016827Y1857367D3*
Y2111367D3*
X2270827Y1857367D3*
Y2111367D3*
X2524827Y1857367D3*
Y2111367D3*
X2778827Y1857367D3*
Y2111367D3*
X3032827Y1857367D3*
Y2111367D3*
X3286827Y1857367D3*
Y2111367D3*
X3540827Y1857367D3*
Y2111367D3*
X3794827Y1857367D3*
Y2111367D3*
X4048827Y1857367D3*
Y2111367D3*
X4302827Y1857367D3*
Y2111367D3*
X4556827Y1857367D3*
Y2111367D3*
X4810827Y1857367D3*
Y2111367D3*
X5064827Y1857367D3*
Y2111367D3*
X5318827Y1857367D3*
Y2111367D3*
X5572827Y1857367D3*
Y2111367D3*
X5826827Y1857367D3*
Y2111367D3*
X6080827Y1857367D3*
Y2111367D3*
X6334827Y1857367D3*
Y2111367D3*
X6588827Y1857367D3*
Y2111367D3*
X6842827Y1857367D3*
Y2111367D3*
X7096827Y1857367D3*
Y2111367D3*
X7350827Y1857367D3*
Y2111367D3*
X7604827Y1857367D3*
Y2111367D3*
X7858827Y1857367D3*
Y2111367D3*
X8112827Y1857367D3*
Y2111367D3*
X8366827Y1857367D3*
Y2111367D3*
X8620827Y1857367D3*
Y2111367D3*
X8874827Y1857367D3*
Y2111367D3*
D28*
X9128853Y1317533D3*
X8874853D3*
X8620853D3*
X8366853D3*
X8112853D3*
X7858853D3*
X7604853D3*
X7350853D3*
X7096853D3*
X6842853D3*
X6588853D3*
X6334853D3*
X6080853D3*
X5826853D3*
X5572853D3*
X5318853D3*
X5064853D3*
X4810853D3*
X4556853D3*
X4302853D3*
X4048853D3*
X3794853D3*
X3540853D3*
X3286853D3*
X3032853D3*
X2778853D3*
X2524853D3*
X2270853D3*
X2016853D3*
X1762853D3*
X1508853D3*
M02*
