G04 DipTrace 3.1.0.1*
G04 TopSilk.gbr*
%MOMM*%
G04 #@! TF.FileFunction,Legend,Top*
G04 #@! TF.Part,Single*
%ADD25C,0.11765*%
%FSLAX35Y35*%
G04*
G71*
G90*
G75*
G01*
G04 TopSilk*
%LPD*%
X9062272Y1824705D2*
D25*
X9138838Y1824704D1*
X9062272Y1799183D2*
Y1850226D1*
X9087794Y1917471D2*
X9138838D1*
X9098744D2*
X9091416Y1910228D1*
X9087794Y1902900D1*
Y1892034D1*
X9091416Y1884706D1*
X9098744Y1877462D1*
X9109694Y1873756D1*
X9116938D1*
X9127888Y1877462D1*
X9135131Y1884706D1*
X9138838Y1892034D1*
Y1902899D1*
X9135131Y1910228D1*
X9127888Y1917471D1*
X9087794Y1941001D2*
X9138838D1*
X9102366D2*
X9091416Y1951951D1*
X9087794Y1959279D1*
Y1970145D1*
X9091416Y1977473D1*
X9102366Y1981095D1*
X9138838D1*
X9062272Y2048340D2*
X9138838D1*
X9098744D2*
X9091416Y2041096D1*
X9087794Y2033768D1*
Y2022818D1*
X9091416Y2015574D1*
X9098744Y2008246D1*
X9109694Y2004624D1*
X9116938D1*
X9127888Y2008246D1*
X9135131Y2015574D1*
X9138838Y2022818D1*
Y2033768D1*
X9135131Y2041096D1*
X9127888Y2048340D1*
X9087794Y2075575D2*
X9138838Y2097391D1*
X9153409Y2090147D1*
X9160737Y2082819D1*
X9164359Y2075575D1*
Y2071869D1*
X9087794Y2119291D2*
X9138838Y2097391D1*
X9283942Y1197806D2*
Y1230656D1*
X9280320Y1241522D1*
X9276614Y1245228D1*
X9269370Y1248850D1*
X9258420D1*
X9251177Y1245228D1*
X9247470Y1241522D1*
X9243848Y1230656D1*
Y1197806D1*
X9320414D1*
X9243849Y1272379D2*
X9320414D1*
Y1316095D1*
X9243849Y1339624D2*
X9298514D1*
X9309464Y1343246D1*
X9316708Y1350574D1*
X9320414Y1361524D1*
Y1368768D1*
X9316708Y1379718D1*
X9309464Y1387046D1*
X9298514Y1390668D1*
X9243849D1*
X9254798Y1465241D2*
X9247470Y1457997D1*
X9243848Y1447047D1*
X9243849Y1432476D1*
X9247470Y1421526D1*
X9254799Y1414197D1*
X9262042D1*
X9269370Y1417904D1*
X9272992Y1421525D1*
X9276614Y1428769D1*
X9283942Y1450669D1*
X9287564Y1457997D1*
X9291270Y1461619D1*
X9298514Y1465241D1*
X9309464D1*
X9316708Y1457997D1*
X9320414Y1447047D1*
Y1432475D1*
X9316708Y1421525D1*
X9309464Y1414197D1*
X9282173Y1488771D2*
Y1530886D1*
X9243848Y1554415D2*
X9320414D1*
X9254798Y1628989D2*
X9247470Y1621745D1*
X9243848Y1610795D1*
Y1596223D1*
X9247470Y1585273D1*
X9254798Y1577945D1*
X9262042D1*
X9269370Y1581651D1*
X9272992Y1585273D1*
X9276614Y1592517D1*
X9283942Y1614417D1*
X9287564Y1621745D1*
X9291270Y1625367D1*
X9298514Y1628989D1*
X9309464D1*
X9316708Y1621745D1*
X9320414Y1610795D1*
Y1596223D1*
X9316708Y1585273D1*
X9309464Y1577945D1*
X9320414Y1710890D2*
X9243848Y1681662D1*
X9320414Y1652518D1*
X9294892Y1663468D2*
Y1699940D1*
X9320414Y1734419D2*
X9243933Y1785463D1*
X9280320Y1808993D2*
Y1841758D1*
X9276614Y1852708D1*
X9272992Y1856415D1*
X9265748Y1860037D1*
X9258420D1*
X9251177Y1856415D1*
X9247470Y1852708D1*
X9243848Y1841758D1*
Y1808993D1*
X9320414D1*
X9280320Y1834515D2*
X9320414Y1860037D1*
X9269370Y1957634D2*
X9320414Y1979534D1*
X9269370Y2001350D1*
X9258505Y2024879D2*
X9254798Y2032207D1*
X9243933Y2043157D1*
X9320414D1*
X9313086Y2070308D2*
X9316792Y2066687D1*
X9320414Y2070308D1*
X9316792Y2074015D1*
X9313086Y2070308D1*
X9258505Y2097544D2*
X9254798Y2104872D1*
X9243933Y2115822D1*
X9320414D1*
X1203028Y1148533D2*
X1279594D1*
X1239500D2*
X1232172Y1155861D1*
X1228550Y1163105D1*
Y1174055D1*
X1232172Y1181298D1*
X1239500Y1188626D1*
X1250450Y1192248D1*
X1257694D1*
X1268644Y1188626D1*
X1275888Y1181298D1*
X1279594Y1174054D1*
Y1163105D1*
X1275888Y1155861D1*
X1268644Y1148533D1*
X1228550Y1219484D2*
X1279594Y1241299D1*
X1294166Y1234056D1*
X1301494Y1226728D1*
X1305116Y1219484D1*
Y1215778D1*
X1228550Y1263200D2*
X1279594Y1241299D1*
X1203028Y1404513D2*
X1279594D1*
X1239500D2*
X1232172Y1397269D1*
X1228550Y1389941D1*
Y1378991D1*
X1232172Y1371747D1*
X1239500Y1364419D1*
X1250450Y1360797D1*
X1257694D1*
X1268644Y1364419D1*
X1275888Y1371747D1*
X1279594Y1378991D1*
Y1389941D1*
X1275888Y1397269D1*
X1268644Y1404513D1*
X1203028Y1464514D2*
X1261316D1*
X1272266Y1460892D1*
X1275888Y1457186D1*
X1279594Y1449942D1*
Y1442614D1*
X1275888Y1435370D1*
X1272266Y1431748D1*
X1261316Y1428042D1*
X1254072D1*
X1203028Y1509943D2*
X1206650Y1502615D1*
X1213978Y1495371D1*
X1221222Y1491665D1*
X1232172Y1488043D1*
X1250450D1*
X1261316Y1491665D1*
X1268644Y1495371D1*
X1275888Y1502615D1*
X1279594Y1509943D1*
Y1524515D1*
X1275888Y1531759D1*
X1268644Y1539087D1*
X1261316Y1542709D1*
X1250450Y1546331D1*
X1232172D1*
X1221222Y1542709D1*
X1213978Y1539087D1*
X1206650Y1531759D1*
X1203028Y1524515D1*
Y1509943D1*
X1213978Y1620904D2*
X1206650Y1613660D1*
X1203028Y1602710D1*
Y1588138D1*
X1206650Y1577188D1*
X1213978Y1569860D1*
X1221222D1*
X1228550Y1573567D1*
X1232172Y1577188D1*
X1235794Y1584432D1*
X1243122Y1606332D1*
X1246744Y1613660D1*
X1250450Y1617282D1*
X1257694Y1620904D1*
X1268644D1*
X1275888Y1613660D1*
X1279594Y1602710D1*
Y1588138D1*
X1275888Y1577188D1*
X1268644Y1569860D1*
M02*
